<?xml version="1.0" encoding="UTF-8"?>
<!DOCTYPE svg PUBLIC "-//W3C//DTD SVG 1.1//EN" "http://www.w3.org/Graphics/SVG/1.1/DTD/svg11.dtd">
<svg xmlns="http://www.w3.org/2000/svg" version="1.1" width="371px" height="370px" style="shape-rendering:geometricPrecision; text-rendering:geometricPrecision; image-rendering:optimizeQuality; fill-rule:evenodd; clip-rule:evenodd" xmlns:xlink="http://www.w3.org/1999/xlink">
<g><path style="opacity:0.978" fill="#fe360e" d="M 97.5,-0.5 C 118.5,-0.5 139.5,-0.5 160.5,-0.5C 188.59,1.12307 216.59,4.62307 244.5,10C 252.222,11.8842 256.555,16.7175 257.5,24.5C 211.323,16.202 164.99,15.3686 118.5,22C 99.8855,25.0868 83.2188,32.4202 68.5,44C 47.4505,64.6795 40.2838,89.5128 47,118.5C 52.2765,140.448 65.4431,155.614 86.5,164C 95.3795,167.136 104.379,169.802 113.5,172C 97.2703,175.073 82.2703,181.073 68.5,190C 53.0221,203.573 45.3555,220.74 45.5,241.5C 45.1851,276.025 58.1851,304.192 84.5,326C 72.7751,326.912 61.1085,326.579 49.5,325C 43,322.5 38.5,318 36,311.5C 23.98,217.335 11.8133,123.335 -0.5,29.5C -0.5,27.1667 -0.5,24.8333 -0.5,22.5C 2.34675,14.711 8.01342,10.211 16.5,9C 43.4821,4.39179 70.4821,1.22512 97.5,-0.5 Z"/></g>
<g><path style="opacity:0.985" fill="#fe360e" d="M 146.5,40.5 C 169.169,40.3334 191.836,40.5 214.5,41C 229.836,41.8336 244.836,44.5003 259.5,49C 282.318,56.6463 293.651,72.4796 293.5,96.5C 276.5,96.5 259.5,96.5 242.5,96.5C 242.858,92.0497 241.192,88.5497 237.5,86C 232.465,83.4074 227.132,81.7408 221.5,81C 191.446,77.4504 161.446,77.7837 131.5,82C 120.088,85.0568 115.922,92.2235 119,103.5C 122.866,109.354 128.366,112.521 135.5,113C 170.803,116.617 206.136,119.95 241.5,123C 259.647,124.267 275.814,130.433 290,141.5C 298.851,153.741 301.851,167.407 299,182.5C 297.297,194.076 291.464,202.909 281.5,209C 266.073,216.607 249.74,220.941 232.5,222C 199.767,224.338 167.1,227.338 134.5,231C 130.284,231.72 126.284,233.053 122.5,235C 120.059,237.653 119.059,240.82 119.5,244.5C 119.879,263.357 128.879,275.857 146.5,282C 173.034,288.464 199.367,287.797 225.5,280C 236.851,275.819 244.184,267.986 247.5,256.5C 264.833,256.5 282.167,256.5 299.5,256.5C 294.913,285.256 279.246,305.423 252.5,317C 229.812,325.67 206.312,329.504 182,328.5C 155.109,329.937 129.609,324.77 105.5,313C 80.058,296.458 67.7247,272.792 68.5,242C 67.4768,221.034 76.8101,207.034 96.5,200C 104.042,197.531 111.709,195.531 119.5,194C 156.77,190.004 194.104,186.671 231.5,184C 238.527,183.904 244.027,181.071 248,175.5C 249.549,168.766 247.049,164.266 240.5,162C 235.239,160.615 229.906,159.615 224.5,159C 201.185,157.084 177.852,155.418 154.5,154C 132.874,153.119 111.874,149.119 91.5,142C 74.1941,133.071 66.1941,118.737 67.5,99C 67.4658,74.7233 78.7992,58.3899 101.5,50C 116.228,44.8846 131.228,41.7179 146.5,40.5 Z"/></g>
<g><path style="opacity:0.98" fill="#fe360e" d="M 370.5,64.5 C 370.5,68.1667 370.5,71.8333 370.5,75.5C 358.274,166.969 346.441,258.636 335,350.5C 333.615,360.04 328.449,366.374 319.5,369.5C 267.833,369.5 216.167,369.5 164.5,369.5C 154.42,366.69 149.086,360.023 148.5,349.5C 181.256,353.48 213.589,351.314 245.5,343C 277.591,334.548 300.758,315.382 315,285.5C 320.281,268.969 324.115,252.135 326.5,235C 311.833,234.667 297.167,234.333 282.5,234C 315.872,216.742 328.372,189.575 320,152.5C 316.443,139.204 309.277,128.371 298.5,120C 304.491,119.501 310.491,119.334 316.5,119.5C 317.318,103.662 316.151,87.995 313,72.5C 309.641,62.2713 304.141,53.438 296.5,46C 316.362,46.4559 336.029,48.7892 355.5,53C 362.418,54.4272 367.418,58.2605 370.5,64.5 Z"/></g>
</svg>
